<svg version="1" xmlns="http://www.w3.org/2000/svg" width="1292" height="1292" viewBox="0 0 969.000000 969.000000"><path d="M344.9 175.7c-.1.4-.1 1.2 0 1.7s-.5.4-1.3-.3c-1.3-1.1-1.7-1-2.2.3-.4 1.2-1.1 1.3-2.4.6-1.3-.7-2.1-.5-3 .5-.9 1.1-1.6 1.2-2.5.5-.9-.8-1.4-.7-1.7.2-.3.7-1.1 1.3-1.9 1.4-5.4.4-5.5.4-3.9 1.5 1.2.9 1.1 1-.8.6-1.2-.3-2-.1-1.6.4.3.5 0 .9-.6.9s-.8.6-.4 1.2c.6 1 .4 1-.7 0-.7-.6-1.8-1.2-2.4-1.2-.5 0-.3.5.5 1 1.2.8 1.1 1.1-.8 1.6-1.8.5-2 .9-1 1.5.9.6.6.9-1.1.9-2.1 0-2.2.2-1 1.7 1.2 1.4 1.2 1.6 0 .8-1.1-.6-1.3-.4-.8.9.6 1.4.3 1.5-1.4.5-1.9-.9-1.9-.9-1 .9.9 1.7.6 2.4-1.7 4.2-1.5 1.2-2.1 1.9-1.4 1.5.6-.3 1.2-.2 1.2.3s-1 1.4-2.2 2c-1.3.6-1.7 1.1-1 1.1.6.1 1.2.6 1.2 1.2 0 .5-.4.7-1 .4-.5-.3-1-.1-1 .5s-.5.8-1.2.4c-.8-.5-.7 0 .2 1.1.9 1.1 1 1.6.3 1.1-1-.5-1.3.3-1.3 2.8 0 2.2-.5 3.6-1.2 3.6-.9 0-.8.4.2 1 1.3.9 1.3 1 0 1s-1.3.1 0 1c1 .6 1.1 1 .3 1-.9 0-1.3 2-1.3 6.8 0 4.1.5 7.3 1.3 8.1 1 1.1 1 1.3 0 .7-.7-.4-1.3-.2-1.3.3 0 .6.5 1.1 1 1.1.6 0 1 1.3 1 3 0 1.6.5 3 1.1 3 .5 0 .8.4.4.9-.3.5.2 1.6 1 2.4.8.9 1.5 2 1.5 2.6 0 .6.5 1.1 1.1 1.1.5 0 .8-.4.5-.8-.2-.4.6-.9 1.9-1 2.7-.2 4.2 1.3 2.4 2.4-.6.3-1.5 0-2-.7-.7-1.1-1-.9-1.5.9-.4 1.3-1.2 2.1-2 1.8-1.6-.6-3.8 1.9-2.9 3.4.3.5-.1 1-1 1-1 0-1.3-.5-.9-1.2.4-.6.3-.8-.4-.5-.5.4-.9 1.8-.8 3.1.2 1.8-.1 2.2-1.6 1.8-1-.2-1.8.1-1.8.7 0 .7.5.9 1.2.5.7-.5.8-.3.4.5-.5.7-1.5 1-2.3.7-.8-.3-1.1-.1-.8.5.4.6-.1 1.9-1.1 3-2.1 2.3-3 6.4-1.2 5.3.6-.4.8-.3.5.4-.4.5-1.5.8-2.6.5-1.1-.3-2.1.2-2.5 1.3-.6 1.5-.4 1.5 1.1.3 1.2-.9 1-.4-.5 1.5-1.2 1.5-1.9 3.3-1.5 3.9.4.6.1.7-.7.2-1-.6-1.2-.4-.7.9.4 1 .3 1.5-.4 1.1-1.3-.8-4.1 1.4-3.3 2.7.3.5-.2 2-1.1 3.4-.9 1.3-1.3 3-.9 3.6.5.8.2.9-.9.5-1-.3-1.7-.2-1.7.3 0 .6.6 1 1.3 1 .8.1.6.5-.4 1.3-1.2.9-1.4 1.8-.7 3.6.7 2.1.6 2.2-.7 1.1-1.3-1.1-1.4-1-1 .3.4.8.1 1.8-.6 2.3-.8.5-1 .3-.4-.7.5-.8.4-1.1-.1-.6-.5.5-.9 1.2-.9 1.5-.1.4-.7 1.7-1.4 3s-1 3-.7 3.7c.2.7-.2 1.6-1.1 1.9-1.3.5-1.3.9-.2 2.3 1 1.2 1 1.4.2.9-.9-.5-1.3 0-1.3 1.3 0 1.2-.6 2.1-1.2 2.1-.9 0-.8.4.2 1 .8.5 1.1 1 .5 1-.5 0-1.5 1.1-2.2 2.5-.8 1.9-.8 2.3 0 1.9.8-.5.7-.2 0 .7-.7.7-1.3 2.6-1.3 4.1 0 1.6-.6 2.8-1.2 2.8-.9 0-.8.4.2 1s1.1 1 .3 1c-1 0-1.3 3.7-1.3 14.9 0 12.9.2 15.2 1.8 16.7 1.6 1.7 1.6 1.8-.1 1.1-1.5-.5-1.6-.2-1.2 2.3.3 1.7.2 3-.2 2.9-2-.3-2.7.2-1.3 1.1 1 .6 1.1 1 .3 1-.7 0-1.3.9-1.3 2s-.5 2-1.1 2c-.5 0-.7.4-.4 1 .3.5.1 1-.6 1s-.9.3-.6.7c.4.3-.7 1.9-2.5 3.5s-2.5 2.8-1.8 2.8c.9 0 .6.6-.8 1.6-2.3 1.6-3.2 4.1-.9 2.8.8-.5.8-.3-.2.9-.7.9-1.7 1.5-2 1.2-.4-.2-.8.2-.8 1s.5 1.2 1.1.9c.6-.3 0 .4-1.4 1.6-1.4 1.2-1.8 1.8-1 1.4 1.2-.6 1.3-.4.3.7-.7.7-1.3 2.6-1.3 4.1 0 1.6-.7 3.1-1.5 3.4-.8.4-1.2 1-.9 1.5.3.5-.5 1.8-1.8 2.9-1.3 1.1-1.7 1.9-1 2 .7 0 1 .5.7 1-.4.6-1 .8-1.5.5-.4-.3-.6.5-.2 1.7.4 1.6.2 1.9-.9 1.3-.8-.5-1.1-.5-.7 0 .4.4.3 1.4-.4 2.2-.9 1.1-.7 1.2.8.7 1.8-.7 1.8-.7.1 1.3-1.3 1.5-1.5 2.3-.7 2.8s.6 1.4-.5 3.1c-1.4 2.2-1.4 2.4.2 2.5 1.6 0 1.6.1.2.7-1.1.5-1.6 1.8-1.5 4 .1 1.7-.1 3.2-.4 3.2-.3 0-.4 1.9-.2 4.1.3 2.8 0 4.4-.9 5-1.2.7-1.2.9.1.9 1.1 0 1.1.3.2 1.2-1.7 1.7-1.7 23.2.1 22.2.8-.5.8-.2-.2.9-.9 1.1-1 1.7-.2 1.7.6 0 1.1.9 1.1 2s.6 2 1.3 2c.8 0 .7.4-.3 1s-1.1 1-.2 1c.6 0 1.2 1.1 1.2 2.5 0 2.2 1.5 6 3 7.5.7.7 1.3 3.2 1.2 5.3 0 .9.3 1.5.7 1.3.8-.5 1 .2 1.4 5.1.1 1.7.5 2.9.8 2.7 1-.6 2 2.6 1.3 3.9-.3.7.2.3 1.1-.8 1.6-1.9 1.6-1.9 1.1.9-.3 1.6-.2 2.6.1 2.2.3-.3 1.4.4 2.5 1.6 1.7 2 1.7 2.2.2 4-1 1-2.6 1.8-3.7 1.8-1.3 0-1.7.5-1.3 1.6.3.8.2 1.2-.4.9-1.3-.8-8 1.6-7.4 2.7.5.7-1 1.2-2.8.9-.4 0-.4.7-.1 1.6.5 1.2.2 1.5-.9 1.1-1-.4-1.5-.1-1.4 1 0 1-.6 1.7-1.5 1.6-1.2-.1-1.5.4-1.1 1.9.3 1.1.1 1.8-.4 1.5-.5-.3-1.7.3-2.6 1.4-1 1-1.3 1.8-.8 1.8.6 0 1 .4 1 1 0 .5-.6 1-1.4 1-.8 0-1.7.7-2 1.6-.4 1-.2 1.3.7.7.6-.4.4.5-.5 1.9-1.2 1.8-1.4 2.9-.7 3.3.7.5.6 1.1-.1 2-.8 1-.8 1.5 0 2s.8 1 0 2c-.6.7-.7 1.6-.2 1.9.4.2.7 2 .5 3.8-.7 6.6-.2 16.2.9 16.9.7.4.6.8-.3 1.2-1 .4-1 .6-.1.6.6.1 1.2 1 1.2 2.1s.6 2 1.3 2c.8 0 .7.4-.3 1-1.3.9-1.3 1 0 1 1.2 0 1.3.2.1.9-1.1.7-1.1.9 0 1.4.9.4.8.6-.5.6-1.6.1-1.7.3-.5 1.8 1.3 1.5 1.2 1.5-.8.4-2.1-1.1-2.7-.8-2.4 1.1 0 .5-.4.8-1 .8-.5 0-.7.4-.4 1 .4.6-.1.7-1.1.3-1-.3-1.5-.2-1.2.3.3.5 0 1.5-.8 2.2-.8.7-1.4 1-1.4.5 0-.4-.6.1-1.3 1.2-.8 1-1.9 1.5-2.5 1.1-.7-.4-1 .1-.7 1.4.2 1.1-.1 2.3-.7 2.6-.7.5-.8.2-.3-.6s.3-1.1-.6-.8c-.8.3-1.3 1.1-1.1 1.7.1.7-.6 1.1-1.5.9-1-.2-1.8.3-1.8 1.2 0 .8-1.1 1.7-2.4 1.8-1.9.3-2.1.6-1 1.3 1.1.7 1 .9-.4.9-1.2 0-1.6.4-1.1 1.2.5.8 0 .7-1.1-.2-1.7-1.4-1.8-1.3-1.2.2.4 1.2.2 1.8-.8 1.8-.7 0-1.7.5-2.1 1.2-.4.7-.3.8.4.4.8-.5 1-.2.6.8-.3.9-1 1.4-1.4 1.1-.5-.3-1.1-.1-1.5.5-.3.5 0 1 .7 1s-.2.8-2 1.7c-1.8.8-3 1.8-2.8 2.1.3.3 1.2-.1 2.1-.8.8-.7 1.5-.9 1.5-.4s-1.6 2-3.4 3.4c-1.9 1.4-3.2 2.8-3 3.2.2.4 0 .9-.5 1.2-.5.4-1.3.1-1.7-.5-.5-.8-.3-.9.6-.4.9.5 1.1.4.6-.4-1.1-1.7-2.6-.3-1.9 1.7.3.9.2 1.4-.2.9-1.1-1-6.6 4.3-5.8 5.6.4.6 0 .8-.9.5-1.1-.5-1.4 0-1.1 2 .2 1.5 0 2.1-.3 1.4-.7-1.6-2.7-1.6-2.2 0 .3.7-.6 2.1-1.9 3.2-1.3 1-2.2 2.5-1.9 3.2.3.8-.1 1.4-1 1.4-.8 0-1.3.4-1 .9.3.5-.1 1.2-1 1.5-1 .4-1.3.2-.8-.6.5-.7.3-.8-.5-.4-.7.5-1 1.4-.7 2.2.3.9 0 1.1-1.1.7-1.2-.5-1.4-.3-.8.7.6 1 .4 1.2-1 .6-1.5-.5-1.6-.4-.5.9s1 1.4-.4.9c-1.1-.4-1.6-.1-1.6 1.1 0 1.5-.3 1.5-1.5.5-1.3-1.1-1.4-1-1 .3.4.8.1 1.8-.4 2.2-.6.3-.9 1.1-.6 1.6.4.5-.2.6-1.1.2-1.4-.5-1.6-.3-1.1 1.1.4.9.3 1.5-.1 1.3-.4-.2-1.5.5-2.5 1.6-1.9 1.9-1.8 1.9.5 1.2l2.3-.7-2.2 1.7c-1.3.9-2.3 2.2-2.3 3 0 .8-.9 2-2 2.8-1.1.8-1.7 1.8-1.2 2.3.4.4-.1.2-1-.5-1.5-1.1-1.7-1-1.3.8.2 1.4-.1 2.1-1.1 2.1-.8 0-1.4.5-1.4 1.1 0 .5.5.7 1.2.3.7-.5.8-.3.4.5-.5.7-1.1 1-1.4.7-.3-.4-1.8.6-3.4 2.1-2.3 2.2-2.5 2.9-1.5 4.2 1 1.2.9 1.3-.2.7-1.7-1.1-3.5 1.5-1.8 2.6.9.6.9.8 0 .8-.7 0-1.3.5-1.3 1 0 .6-1.1 2.3-2.5 3.8s-2.5 3.1-2.5 3.6-.8 1.5-1.8 2.3c-1.1.9-1.2 1.2-.2.8.8-.4.5.2-.8 1.2-1.8 1.5-2 2.1-1 3.2.7.8.8 1.1.3.8-.6-.3-1.7.3-2.4 1.5-1 1.6-1 1.9.1 1.2 1-.6 1-.4-.1.9-.7.9-1.7 1.5-2.1 1.2-.5-.3-.7.3-.5 1.2.4 2.7-1.4 4.6-3.2 3.2-1.1-1-1.2-.9-.7.5.3.9.1 1.6-.6 1.6-.6 0-.8.5-.5 1.1.4.6-.1 1.7-1.1 2.5-1.8 1.3-1.8 1.4-.1.8 1.7-.6 1.6-.4-.3 3-1.1 2.1-1.6 3.5-1.1 3.2.5-.3.7.3.4 1.4-.3 1.1-1 2-1.5 2s-.6 1-.3 2.2c.5 1.8.4 2-.4.8-.9-1.3-1.1-1.3-1.1.2 0 1-.5 1.8-1.2 1.8-.6 0-.8.3-.5.7.4.3.1 1.6-.6 2.7-.8 1.2-1.3 3.7-1.3 5.6.1 2-.6 4-1.4 4.7-1.3 1.1-1.3 1.2 0 1.3 1.2 0 1 .4-.4 1.5-1.1.8-1.6 1.5-1 1.5.5 0 .2.5-.6 1-1.3.9-1.3 1 0 1.1 1 0 .9.3-.4.8-1.1.4-2.1 2-2.3 3.6-.3 1.6-1 3.6-1.6 4.4-1 1.2-.9 1.3.3.6 1.2-.6 1.3-.5.3.6-.7.7-1.3 3.3-1.3 5.7 0 2.4-.4 4.1-.9 3.8-.5-.4-.7.3-.4 1.4.4 1.5 0 2-1.3 2-1.4 0-1.6.2-.6.9 1.1.7 1 .9-.3 1.5-.9.3-1.3 1-1 1.6.3.5 0 1-.7 1-1 0-.9.3.2 1 1.2.8 1.2 1.1-.3 2.8-.9 1-1.4 2.2-1.1 2.5.4.4.1 1.3-.6 2.2-1 1.2-1 1.5.1 1.5s1.1.2.2.8c-.7.5-1.3 3.5-1.5 7.5-.1 3.6-.5 6.2-.8 5.7-.3-.5-1.1-.5-2 0-1.3.9-1.3 1 0 1 .9 0 1.1.3.5.8-1.2.9-1.5 2-1.6 7.5-.1 2.3-.7 4.8-1.3 5.6-.8 1.1-.8 1.3.1.7.9-.5 1.1-.2.7.8-.3.9-1.1 1.3-1.6 1-.6-.4-.6.2.1 1.4.9 1.6.7 2.1-.6 2.7-1.5.5-1.5.7-.3 1.5.9.6 1 1 .3 1-1 0-1.6 7.5-1.5 17.2.1 1-.3 2-.9 2.3-.5.4-.9 4.4-.9 9 0 5-.4 8.7-1.1 9.1-.8.4-.7.9.2 1.5.8.5.9.9.4.9-.6 0-1.2 1.7-1.3 3.7-.2 2.1-.5 3.9-.7 4.2-.3.2.1 1.1.8 1.9.8 1 .8 1.3.1.9-2.1-1.2-2.4 2.1-2.4 23.4 0 16-.3 20.9-1.2 20.9-.9 0-.8.4.2 1 1.3.9 1.3 1 0 1s-1.3.1 0 1c1 .6 1.1 1 .3 1-1 0-1.3 5.1-1.3 22v22h804v-10c0-5.5-.4-10-.8-10-.5 0-1-2.6-1.1-5.7-.1-3.1-.4-6-.7-6.4-.2-.4 0-1 .5-1.4.7-.3.7-1.5.1-2.9-.5-1.3-.6-2.7-.3-3 .3-.3 0-1.3-.8-2.3-1.2-1.5-1.2-1.6.1-.9.8.4.6 0-.4-.8-1.1-.9-1.4-1.6-.8-1.6 1 0 1-.5.2-2s-.8-2 .2-2c.9 0 .9-.3-.2-1-1.2-.8-1.2-1-.1-1 1 0 1.1-.3.2-1.3-.6-.8-.8-1.7-.4-2 1.2-1.3.8-7.7-.4-7.7-.7 0-1.3-.5-1.3-1.1 0-.5.5-.7 1.2-.3.8.5.8.3.2-.7-1.3-2-2.1-26.8-.9-27.3.6-.3.4-.5-.3-.5-.7-.1-1-.6-.6-1.2.3-.6 0-1.5-.7-2-1.2-.7-1.2-.9 0-.9 1 0 1.1-.3.3-1.3-.6-.7-1.2-3.8-1.3-6.9-.1-3.2-.6-5.5-1.1-5.2-.4.3-.8-.2-.8-1.1 0-.9-.4-1.4-.9-1.1-.5.4-.9-5.8-.8-14.9.2-13.2 0-15.5-1.3-15.5s-1.3-.1 0-1c.8-.5 1-1 .4-1s-1.2-2.4-1.3-5.7c-.1-3.2-.7-6.3-1.3-7-.7-.9-.7-1.3.1-1.3.8 0 .8-.4-.1-1.4-.7-.8-1.6-1.2-1.9-1-.3.2-.6-.3-.6-1.1s.5-1.1 1.1-.8c.6.4.2-.3-.8-1.5-1.1-1.2-1.5-2.2-1-2.2.6 0 .8-1.6.6-3.5-.2-1.9-.9-3.5-1.6-3.5-.6 0-.4-.4.4-1 1.3-.8 1.3-1 0-1.5-1.2-.4-1.5-2.2-1.4-7.8.1-3.9-.3-7.7-.8-8.4-.5-.6-.8-4-.6-7.5.3-5.7.1-6.5-2.2-8.2-2-1.4-2.1-1.7-.5-1.2 1.9.6 1.9.5.3-.8-2.1-1.5-2.4-3-.5-2.1.6.4.3-.1-.7-.9-1.1-.9-1.5-1.6-1-1.6.6 0 .8-1.6.6-3.5-.3-2.3-.8-3.2-1.6-2.8-.6.4-.5 0 .2-.9.9-1.1 1-1.8.2-2.3-.5-.3-1-1.5-1-2.6 0-1-.5-1.9-1.2-1.9-.9 0-.9-.3 0-1.2 1.6-1.6 1.5-3.3-.1-1.9-1.1.8-1.8.6-3.3-1.1-1.6-1.9-1.6-2.1-.1-.9 1.5 1.2 1.7 1.2 1.1-.3-.3-.9-1-1.6-1.5-1.6s-.9-.9-.9-2.1c0-1.3-.4-1.8-1.2-1.3-1 .6-1 .4 0-.8.7-.9.9-1.9.4-2.2-1.5-.9-2.1-5.5-.8-6 .6-.2.3-.5-.8-.5-1.4-.1-1.6-.4-.8-1.4.8-1 .5-2-1.3-4.2-2.9-3.3-3.2-4.4-.8-2.4 1.5 1.3 1.5 1.2.3-.8-.8-1.2-1.8-1.9-2.2-1.7-.4.3-.8-.2-.8-1.1 0-1-.5-1.3-1.2-.9-.9.5-.8.2.1-1 1.3-1.5 1.2-1.8-.7-2.3-1.8-.4-2.2-1.3-2.2-4.4 0-2.2-.5-3.9-1.1-3.9-.8 0-.7-.6.2-1.7 1.2-1.4 1.2-1.6-.1-1.1-2.3.7-4.9-2.4-5.2-6.5-.1-2-.6-3.7-1.1-3.7-.5 0-.4-.7.3-1.5 1-1.3.9-1.5-1-1.5s-2-.2-1-1.5c1.2-1.5 1.1-1.6-1.2-1.9-.7 0-1.5-1.2-1.6-2.5-.2-1.3-1.5-3.4-2.8-4.6-1.3-1.2-2.1-2.5-1.7-2.8.3-.4.1-.7-.6-.7s-1-.4-.7-.9c.4-.5 0-1.2-.6-1.4-.9-.4-.8-.6.2-.7 1 0 .6-.6-1-1.6-1.4-.8-1.7-1.3-.7-1 1.1.3 1.5.2 1.2-.4-.3-.6-1.4-1-2.3-1-1.3 0-1.4-.2-.3-.9.9-.6 1-1 .2-1.2-.7-.3-1.3-1.4-1.4-2.7-.1-1.3-.6-2.1-1.4-1.8-.7.3-1.5 0-1.9-.6-.4-.6-.3-.8.4-.4.6.3 1.4.1 1.8-.5.5-.8-.1-1-2-.7-1.9.4-2.4.2-1.7-.5 1.2-1.2-1.4-4.2-2.8-3.2-.5.3-1.3 0-1.7-.6-.4-.8-.3-.9.4-.5s1.2.3 1.2-.3c0-.5-.5-1.1-1-1.3-.6-.2-1.1-1.7-1.3-3.5-.1-1.7-.5-2.9-.9-2.6-.5.2-.8-.1-.8-.6 0-.6-.7-1.1-1.5-1.1-.9 0-1.2-.6-.9-1.5.5-1.1.2-1.3-1.2-.8-1.3.5-1.5.3-.9-.7s.4-1.2-.8-.7c-.9.3-1.9.1-2.3-.5-.4-.7-.3-.8.4-.4s1.2.4 1.2.1c0-1-2.8-3.5-3.9-3.5-.5 0-1.3-.5-1.7-1.2-.4-.7-.3-.8.4-.4s1.2.2 1.2-.3c0-.6-.4-1.1-1-1.1-.5 0-1-.7-1-1.6 0-.8-.4-1.2-1-.9-.5.3-.7 0-.4-.8.2-.7-.3-2.2-1.3-3.3-1-1.1-1.5-1.5-1-1 .4.6.7 1.4.7 2 0 .5-.6.1-1.4-1-1-1.3-1.1-2.3-.4-3.1.8-1 .3-1.2-2.1-.9-2.6.3-2.9.1-2-1 .9-1.1.9-1.4 0-1.4-.7 0-.9-.5-.5-1.3.6-.9.5-.9-.7 0-1.2 1-1.7.8-2.9-1-1.3-2.1-1.2-2.1.6-.7 1.8 1.4 1.8 1.4.5-.3-.8-1-2.1-1.5-2.9-1.2-1.2.4-1.3.3-.2-1 1-1.2 1-1.5-.1-1.7-.8 0-1.8-.2-2.4-.3-.5-.2-1.4-.3-1.9-.4-.5 0-.2-.9.5-1.8.8-.9 1-1.4.4-1.1-1.2.6-5.7-3.7-4.8-4.6.6-.5-2.1-1-3.9-.7-.5 0-.8-.4-.8-.9 0-.6.6-1 1.3-1 .6-.1.2-.6-1.1-1.3-1.7-1-1.9-1.6-1.1-2.4.9-.9.7-1.1-.7-.9-1.1.2-2.7-.8-3.8-2.3-1.4-2-1.7-2.1-1.2-.6.6 1.9.5 1.9-.7.3-.8-1-1.8-1.4-2.3-1-.4.4-.2-.1.5-1.1.8-.9 1.1-2 .7-2.4-.3-.3-.6-.1-.6.4 0 .6-.8 1-1.7.9-1-.2-1.8-.9-1.8-1.7 0-.8-.8-1.3-1.7-1.3-1 .1-1.7-.1-1.6-.5.2-1.8-.3-2.2-1.6-1.2-1.2 1-1.3.8-.9-.8.4-1.5.1-2.1-1-2.1-.9 0-2.8-1.6-4.3-3.5-1.5-2-3.3-3.4-4-3.1-.6.2-1.5.2-1.8-.2-.4-.3-1.4-.7-2.4-.8-.9-.2-1.8-.8-2-1.3-.2-.6-1-1.1-1.8-1.1-.9 0-1.3-.4-1-.9.4-.5-.4-.7-1.6-.4-1.7.3-1.9.2-1-.5 1.1-.7 1.1-1-.2-1.5-.9-.4-1.6-.1-1.7.6 0 .7-.4.2-.9-1.1-.5-1.2-1.8-2.2-2.9-2.2-1 0-2.2-.7-2.5-1.6-.3-.8-1-1.3-1.4-1-.5.3-1-2.9-1.1-7.1-.2-6.5-.5-7.9-2.2-9.1-1.4-1-1.7-1.8-1-2.5.6-.6.5-1.4-.4-2.4-.8-.7-1.1-2.1-.8-3 .4-1.1.3-1.4-.5-.9-.7.4-1.2.1-1.2-.9s-.5-1.3-1.2-.9c-.7.5-.8.3-.3-.6.4-.7.2-1.6-.6-2.1-1.2-.7-1.1-.9.1-.9 1.1-.1 1-.4-.4-1.5-1.1-.8-1.4-1.5-.8-1.5 1 0 1-.3 0-1.4-.7-.8-1.7-1.1-2.3-.8-.5.3-.4-.2.4-1.1 1.2-1.5 1.2-1.7-.2-1.1-1.2.4-1.5.1-1.2-1.5.2-1.1.1-2-.3-2-1.9.3-2.3-.2-1.3-1.5 1-1.2.5-1.5-2.9-2.1-2.2-.4-3.8-1.1-3.4-1.6.5-.8-.8-1.2-2.2-.7-.4.2-1.1-.8-1.5-2.1-.8-2-1.1-2.2-2.6-1-1.4 1.2-1.5 1.1-.9-.9.6-1.7.4-2.1-.8-1.6-1.1.4-1.6 0-1.7-1.2 0-1.8-.1-1.7-.9.1-.7 1.7-.9 1.7-.9.2-.1-.9-.6-1.7-1.2-1.7-.5 0-.7-.6-.3-1.3.5-.9.4-.9-.6 0-.9.9-1.9.9-3.2.2-1.1-.6-2.6-.8-3.3-.5-.8.3-2.2-.3-3.2-1.2-1.1-.9-1.2-1.3-.3-.7 1.3.8 1.3.7.2-.5-.7-.8-2.2-1.5-3.4-1.5-2.4 0-3.6-4.3-1.6-5.7 1-.6 1-.8 0-.8s-.9-.4.3-1.6c.9-.9 1.4-2.3 1.1-3.1-.3-.7 0-1.6.7-1.8.6-.3 1.3-1.7 1.4-3.2 0-1.5.6-2.9 1.2-3.1.6-.2.9-.8.5-1.3-.3-.5 0-.8.8-.7.7.2 1.2-.4 1-1.4-.1-.9.2-1.9.8-2.3.5-.3 1-1.9 1-3.5s.5-3.2 1-3.5c.6-.4.8-1.1.5-1.6-.4-.5.1-1.7 1-2.6 1.3-1.3 1.4-1.8.3-2.4-.8-.5-.9-.9-.2-.9 1.6 0 2.3-3.4 1.2-5.4-.5-.9-.6-1.6-.1-1.5 2 .4 2.4-.2 1.2-1.8-1.1-1.3-1.1-1.5-.1-.9 1.1.6 1.3-2 1.1-13.8-.1-8-.6-14.3-1-14-.5.3-.9-.3-.9-1.3 0-1.1-.5-2.4-1.1-3-.8-.8-.8-1.3 0-1.7.8-.5.8-1.3.1-2.6-.6-1-1.1-3-1.2-4.4-.1-1.5-.6-2.6-1.1-2.6-.5 0-.3-.8.4-1.7 1-1.1 1-1.4.2-.9-.8.4-1.3.2-1.3-.4 0-.7-.7-.9-1.6-.6-1.4.5-1.5.4-.4-.9.7-.9.8-1.5.2-1.5-.5 0-.8-.9-.5-2 .3-1.2 0-2-.6-2-.7 0-.9-.5-.5-1.2s.3-.8-.4-.4c-1.3.8-3.8-3.2-3.3-5.3.1-.9-.3-1.2-1.3-.8-1.9.8-2.1-.4-.3-2.2 1-1.1 1-1.3 0-.7-.7.4-1.3.2-1.3-.3 0-.6-.5-1.1-1.1-1.1-.5 0-.7.6-.3 1.2.4.7-.5.2-1.9-1.1-1.5-1.3-2.5-2.7-2.2-3 .2-.4 0-1.3-.6-2.1-.7-1.3-.9-1.3-.9 0-.1 2-2.9-3-3-5.3 0-.9-.4-1.7-1-1.7-.5 0-1-.5-1-1.1 0-.5.6-.7 1.3-.3.9.6.9.5 0-.7-.7-.9-1.2-6.9-1.3-16.9-.3-19.5-.3-19-1.2-19-.4 0-.6-1.4-.4-3 .2-1.7-.1-3-.8-3-.6 0-.4-.5.4-1 1.3-.9 1.3-1 0-1s-1.3-.1 0-1 1.3-1 0-1-1.3-.1 0-1c.8-.5 1-1 .4-1-1.6 0-2.5-3.8-1-4.4.7-.3.7-.5-.1-.5-.8-.1-1.3-1.5-1.3-3.5 0-1.9-.6-3.7-1.2-3.9-1-.4-.9-.6.1-.6 1-.1.7-.7-.8-2s-1.8-2.1-1-2.6c.8-.6.8-.9 0-1.5-.7-.4-1.3-1.7-1.4-2.8-.1-1.2-.6-2.2-1.1-2.2-.6 0-.5-.5.2-1.2 1-1 .7-1.5-1-2.5-1.3-.7-1.7-1.2-.9-1.3.9 0 .3-1-1.5-2.6-1.6-1.5-2.4-2.3-1.7-2 .6.3 1.5.2 1.8-.4.4-.6.3-1-.2-.9-2.2.4-3.3-.3-3.3-2.2 0-1.1-.4-1.8-.9-1.5-.5.4-.7-.3-.4-1.4.4-1.4 0-2-1.1-2-.9 0-1.6-.8-1.6-2 0-1.1-.5-2-1.1-2-.5 0-.7-.5-.4-1 .3-.6 0-1-.8-1-.7 0-2.3-1.1-3.5-2.5-1.2-1.4-1.8-2.5-1.3-2.5s1.6 1 2.5 2.2c1.6 2.3 1.6 2.3.4-.5-.7-1.6-1.9-2.7-3-2.7s-1.7-.4-1.3-.9c.5-.9-3.2-2.7-4.7-2.3-.4.1-.4-.6-.1-1.5.5-1.2.2-1.5-1-1-.9.3-1.7.2-1.7-.4 0-.6-.4-.8-.8-.5-.5.3-1.4-.4-2.2-1.4-.8-1-1.7-1.7-2.2-1.4-.4.3-.8.1-.8-.5 0-1.5 1.8-2.3 2.2-.9.2.6 1.4 1.3 2.7 1.5 1.4.2 2-.1 1.5-.8-.4-.8-.1-.8 1.3-.1 1.5.9 2 .8 2-.3 0-.8-.5-1.1-1-.8-.6.3-.7.1-.3-.6.6-.8 1.2-.9 2-.2.9.8 1.3.7 1.3-.4 0-.8-.5-1.5-1.1-1.5-.6 0-.4-.4.4-.9.8-.6 1.8-.7 2.4-.4.5.3.6.1.2-.5-.4-.7-.2-1.2.3-1.2.6 0 1.1-.4 1.1-1 0-.5-.8-.7-1.7-.3-1 .3-1.6.4-1.3.2 3.6-3.1 5.3-4.1 4.2-2.8-.9 1.3-.9 1.6.3 1.6.8 0 1.2-.4.9-.8-.2-.4.3-1.5 1.2-2.3 1.1-1.2 1.2-1.6.2-1.6-1.1 0-1.1-.2 0-.9.7-.4 1.4-1.8 1.5-2.9.1-1.2.5-2.2.9-2.2s.8-.9.8-1.9c0-1.1.5-2.3 1-2.6 1.5-.9 1.3-13.8-.2-15.4-1-1.1-1-1.3 0-.7.6.4 1.2.2 1.2-.3 0-.6-.4-1.1-1-1.1-.5 0-1-.9-1-2.1 0-1.2-.4-1.7-1.1-1.3-.8.4-.8 0 0-1.5.9-1.7.9-2.1-.1-1.9-.7.2-1.2-.4-1-1.4.1-1-.6-2.3-1.8-3-1.1-.7-2-2.1-2-3.1s-.4-1.5-1-1.2c-.5.3-1 .1-1-.5 0-.7-.7-.9-1.6-.6-1.4.5-1.5.4-.4-.9s1-1.4-.6-.8c-1.6.6-1.7.5-.6-.9 1.2-1.4 1-1.6-1-1-2.1.5-2.2.4-.8-1.3.9-1.1 1-1.6.3-1.1-.8.4-1.3.2-1.3-.6 0-.9-.3-.9-1 .2-.8 1.2-1 1-1-1s-.2-2.2-1-1c-.8 1.2-1 1.1-1-.6 0-1.2-.7-2.5-1.6-2.8-1.5-.6-1.5-.4-.4 1.1.8 1 .1.6-1.4-1-2.7-2.7-4.3-3.6-3.1-1.7.3.5.1 1-.4 1-.6 0-1.1-.8-1.1-1.8 0-1.3-.9-1.7-3.6-1.8-2-.1-4-.7-4.4-1.4-.6-.9-.9-.9-1.3.1s-.6 1-.6.1c-.1-.6-.6-1.2-1.2-1.2-.5 0-.7.4-.4 1 .3.6-.1.7-.9.4-.9-.3-1.6-1-1.6-1.4 0-.5-1.3-.5-2.9 0-2.1.6-3.1.5-3.5-.3-.3-.8-.5-.8-.5.1-.1.8-.6 1-1.3.5-1.9-1.1-3.7-1.2-4.3-.3-.3.5-1.7.7-3 .4-1.6-.3-2.7.1-3.1 1-.3.8-1.4 1.3-2.5 1.1-1.1-.2-1.7 0-1.4.6.4.5-.1.9-1 .9s-1.3.4-1 1c.9 1.5-.2 1.2-1.9-.6-1.3-1.2-2.3-.5-1.3 1 .1.2-.7 1.3-1.7 2.5-1.6 1.7-2.2 1.9-3.4.8-1.3-1-1.4-.9-.3 1.1 1.2 2.2 1.1 2.3-.7 1.3-1.7-.9-1.9-.8-1.5.9.3 1.2 0 2-.6 2-.7 0-.9-.5-.5-1.2.5-.7.3-.8-.5-.4-.7.5-1 1-.7 1.3.3.3-.2 1.2-1 2s-1.2 1.9-.8 2.4c.3.5.2.9-.3.8-.4-.1-1.7-.1-2.8 0-1.7.1-1.8.3-.5 1.1s1.2 1-.3 1c-1 0-1.6.4-1.3.9.3.5-.2 1.5-1.2 2.2-1.5 1.2-1.6 1.2-.4-.2 1-1.4 1-1.8-.1-2.2-1.1-.4-1.3.2-1.1 2.4.3 2.1-.1 2.9-1.2 2.9-.8 0-1.3.4-1 .9.3.5-.1 1.1-.9 1.5-.8.3-1.7 0-2.1-.6-.4-.7-.3-.8.4-.4s1.2.4 1.2.1c0-1.3-6.5-3.3-7.7-2.4-.7.7-1.6.5-2.4-.4-.8-.8-2.1-1.2-3-1-.9.3-2 0-2.3-.6-.5-.7-.1-.8 1.1-.4 1 .3 1.5.3 1.2-.1-.4-.4-1.6-.8-2.8-1.1-1.1-.2-2.6-.7-3.1-1-.6-.3-1-.1-1 .5 0 .7-.6.8-1.7.2-1-.5-2.6-.8-3.5-.7-1 .2-1.6 0-1.5-.4.1-.3-.5-1.4-1.3-2.3-1.1-1.1-2.1-1.3-3.7-.7-1.2.4-2.5.5-2.7 0-.6-1-3.7-.8-5.5.4-.9.5-1.2.4-.8-.2.8-1.2-2-2.6-3.4-1.7-.5.3-.9.1-.9-.5s-1.1-.6-3-.1-3 .5-3-.1-.4-.7-1-.4c-.5.3-1 .1-1-.5 0-.8-.6-.7-2.1.1-1.2.6-1.9.7-1.5.1.3-.5-.8-1.2-2.4-1.4-1.7-.3-3 0-3 .5s-.6.5-1.3-.1c-.7-.6-1.9-.7-2.6-.3-.7.5-2.8.5-4.7.1-2.1-.5-3.4-.4-3.4.2 0 .7-.4.7-1.3 0-.7-.6-1.9-.7-2.6-.3-.7.5-2.8.5-4.7.1-2-.5-3.4-.4-3.4.2 0 .5-.6.5-1.7-.1-1.2-.6-2-.5-2.8.6-1 1.3-1.6 1.3-3.4.3-1.8-.9-2.2-.9-1.6 0 .5.7.1 1.1-1.1 1-4.3-.5-6.5 0-5.8 1.2.5.9.2.9-.9-.1-1.4-1.1-1.7-1.1-1.7 0 0 1-.3 1-1.1.2-.9-.9-1.8-.8-3.5.4-1.6 1-2.4 1.1-2.4.4 0-.8-.5-.9-1.6-.3-.9.5-3.2.6-5 .2-3.2-.7-3.8-.5-3.6 1.1.1.4-1 .9-2.3 1.2-1.4.2-2.5 0-2.5-.6s-1-.2-2.2.9c-1.2 1-1.8 1.3-1.4.6.7-1.1.4-1.2-1.1-.3-1.1.6-2.4.7-2.9.3-.5-.4-.3 0 .4.9 1 1.4.9 1.6-1.3 1.4-1.4-.2-2.5.2-2.5.8 0 .7-.5.6-1.1-.3-.8-1.1-1.2-1.2-1.6-.2-.6 1.6-8.3 5.3-8.3 4 0-.5-1-1.9-2.2-3-1.3-1.1-1.6-1.6-.8-1.2.8.4 0-.7-1.9-2.5-1.9-1.7-3-3.1-2.3-3.1.6 0 1.6.8 2.1 1.7.6 1 1.1 1.2 1.1.6 0-.7-1.1-2-2.4-2.9-1.6-1-2.3-2.1-1.9-3.1.4-1.1.2-1.4-.5-.9-.7.4-1.2.2-1.2-.3 0-.6-1.4-2.4-3-4-2.2-2.1-2.7-3.1-1.8-3.5.7-.3.3-.4-.9-.2-1.4.2-2.3-.2-2.6-1.4-.3-1-1.5-2.3-2.8-3-2.4-1.1-2.4-1.1.1.9 1.4 1.1 2.1 2.3 1.7 2.7-.4.4-.7.2-.7-.4 0-.6-.9-1.4-2-1.7-1.3-.4-2-1.6-2.1-3.3 0-2.3-.2-2.4-.8-.8-.6 1.4-1 1.6-1.5.7-.5-.7-1.4-1-2.1-.7-.7.2-1.6-.3-2-1.2-.6-1.5-.8-1.5-1.5.3-.8 1.8-.9 1.8-.9.2-.1-1-.5-1.5-1.1-1.2-.5.3-1 .1-1-.6 0-.8-.4-.8-1.5.1-.8.7-1.5.8-1.5.3s-.9-.9-2-.9-2 .4-2 .8c0 .5-.9.4-2-.2-1.1-.6-2.1-.7-2.1-.3zm230.6 6.3c.3.6-.1.7-.9.4-1.8-.7-2.1-1.4-.7-1.4.6 0 1.3.4 1.6 1zm-155 17.8c-.3.3-1.1 0-1.8-.7-.9-1-.8-1.1.6-.5 1 .3 1.5.9 1.2 1.2zm-30.7 8.5c.2 1.1-.2 1.4-1.7 1-1.2-.3-1.7-1.1-1.4-1.9.7-1.8 2.7-1.3 3.1.9zm154.3 3c-.8.8-1.1.7-1.1-.4 0-.9.3-1.9.7-2.3.4-.4.9-.2 1.1.4.3.7-.1 1.7-.7 2.3zM309 252c0 .5-.5 1-1.1 1-.5 0-.7-.5-.4-1 .3-.6.8-1 1.1-1 .2 0 .4.4.4 1zm-10 13.4c0 .2-.7.7-1.6 1-.8.3-1.2.2-.9-.4.6-1 2.5-1.4 2.5-.6zm-10.6 16.7c-.3.5-1 .7-1.5.3-.5-.3-.7-1-.3-1.5.3-.5 1-.7 1.5-.3.5.3.7 1 .3 1.5zm-101 343.4c-.4.8-1.1 1.5-1.6 1.5-.6 0-.5-.6.2-1.5.7-.8 1.4-1.5 1.6-1.5.2 0 .1.7-.2 1.5zm-7.4 10c0 .2-1 .9-2.2 1.5-2.2 1.1-2.2 1-.4-.4 2.1-1.7 2.6-1.9 2.6-1.1zm-33 38.9c0 .2-.7.7-1.6 1-.8.3-1.2.2-.9-.4.6-1 2.5-1.4 2.5-.6zm-10.9 16.9c-1 .9-1.1.8-.5-.6.3-1 .9-1.5 1.2-1.2.3.3 0 1.1-.7 1.8z"/><path d="M378 187.9c0 1 1.9 2.5 2.5 2 .1-.2-.3-1-1.1-1.7s-1.4-.8-1.4-.3zM559 188.1c0 .5.5.7 1 .4.6-.3 1-.8 1-1.1 0-.2-.4-.4-1-.4-.5 0-1 .5-1 1.1zM549.6 196.7c-.6 1.4-.5 1.5.5.6.7-.7 1-1.5.7-1.8-.3-.3-.9.2-1.2 1.2zM514.5 200c.3.5.8 1 1.1 1 .2 0 .4-.5.4-1 0-.6-.5-1-1.1-1-.5 0-.7.4-.4 1zM259.5 378c-.3.5-.1 1 .4 1 .6 0 1.1-.5 1.1-1 0-.6-.2-1-.4-1-.3 0-.8.4-1.1 1zM658.6 379.9c-.3.5.1 1.4.9 2.1 1 .9 1.5.9 1.5.1 0-.6-.5-1.1-1.1-1.1-.5 0-.7-.5-.4-1 .3-.6.4-1 .1-1-.3 0-.7.4-1 .9zM666 389.4c0 .2.8 1 1.8 1.7 1.5 1.3 1.6 1.2.3-.4s-2.1-2.1-2.1-1.3zM710.7 541.1c.7.7 1.5 1 1.8.7.3-.3-.2-.9-1.2-1.2-1.4-.6-1.5-.5-.6.5zM741.5 575c.3.5.8 1 1.1 1 .2 0 .4-.5.4-1 0-.6-.5-1-1.1-1-.5 0-.7.4-.4 1zM192.6 617.2c.3.5 1 .6 1.5.3 1.3-.9 1.1-1.2-.6-1.2-.8 0-1.2.4-.9.9zM123 708.1c0 .5.5.7 1 .4.6-.3 1-.8 1-1.1 0-.2-.4-.4-1-.4-.5 0-1 .5-1 1.1z"/></svg>